<?xml version="1.0" encoding="utf-8"?>
<!-- Generator: Adobe Illustrator 21.0.0, SVG Export Plug-In . SVG Version: 6.00 Build 0)  -->
<svg version="1.1" id="图层_1" xmlns="http://www.w3.org/2000/svg" xmlns:xlink="http://www.w3.org/1999/xlink" x="0px" y="0px"
	 viewBox="0 0 140 101.308" style="enable-background:new 0 0 140 101.308;" xml:space="preserve">
<style type="text/css">
	.st0{fill:#00A3FF;}
	.st1{fill:#00C8DC;}
	.st2{fill:#006EFF;}
</style>
<g>
	<path class="st0" d="M121.323,82.947c-2.493,2.467-6.939,5.268-14.239,5.516c-3.375,0.115-7.317,0.128-9.12,0.128
		c-1.968,0-19.325,0-39.22,0c14.269-13.859,26.717-25.949,28.129-27.32c1.294-1.257,4.203-4.04,6.713-6.3
		c5.509-4.961,10.469-5.959,13.976-5.926c5.496,0.052,10.494,2.296,14.067,5.919C129.271,62.776,129.091,75.26,121.323,82.947
		 M130.717,46.072c-5.86-5.976-14.029-9.741-23.109-9.742c-7.849-0.001-14.607,2.706-20.507,7.51
		c-2.572,2.094-5.27,4.602-8.664,7.898c-1.686,1.637-50.562,49.062-50.562,49.062c2.562,0.365,6.086,0.474,9.228,0.494
		c2.944,0.018,59.1,0.013,61.451,0.013c4.731,0,7.81-0.005,11.118-0.247c7.585-0.554,14.751-3.336,20.544-9.024
		C143.079,79.404,143.272,58.903,130.717,46.072z"/>
	<path class="st1" d="M51.861,43.022c-5.745-4.3-12.177-6.703-19.469-6.693c-9.08,0.001-17.249,3.766-23.109,9.742
		C-3.272,58.903-3.079,79.404,9.784,92.036c5.165,5.072,11.421,7.831,18.093,8.763l12.585-12.211
		c-2.035-0.008-4.955-0.036-7.546-0.124c-7.299-0.248-11.745-3.049-14.239-5.517c-7.767-7.687-7.948-20.171-0.305-27.983
		c3.573-3.623,8.571-5.867,14.067-5.919c3.444-0.014,8.117,0.986,13.399,5.364c2.521,2.09,8.119,7.01,10.574,9.225
		c0.125,0.113,0.276,0.123,0.422,0.003l8.665-8.454c0.15-0.146,0.141-0.342-0.007-0.475C61.324,50.94,55.417,45.67,51.861,43.022"/>
	<path class="st2" d="M111.015,28.991C105.036,12.103,88.936,0,70,0C48.278,0,30.277,15.973,27.018,36.78
		c1.747-0.294,3.541-0.45,5.374-0.45c2.55-0.004,4.993,0.294,7.34,0.859c0.046,0.01,0.092,0.015,0.137,0.026
		C42.812,23.166,55.231,12.732,70,12.732c12.3,0,23.091,7.419,27.956,17.932c0.077,0.165,0.206,0.22,0.339,0.184
		c3.659-1.005,8.046-1.59,12.282-1.278C110.99,29.6,111.149,29.368,111.015,28.991"/>
</g>
</svg>
